<?xml version="1.0" ?>
<svg width="1000" height="1000" pen_width="0" xmlns="http://www.w3.org/2000/svg">
	<polyline points="668.0656620436182,708.9779096156515 448.4582874955575,809.5888968829574 " curvature_circle="0 0 " pressure="0.5 0.5 " style="fill:none; stroke:black;stroke-opacity:0.5; stroke-width:0.25; "/>
	<polyline points="536.9510429888941,584.0458513004878 668.0656620436182,708.9779096156515 " curvature_circle="0 0 " pressure="0.5 0.5 " style="fill:none; stroke:black;stroke-opacity:0.5; stroke-width:0.25; "/>
	<polyline points="536.9510429888941,584.0458513004878 346.15611330011654,650.0717803130351 " curvature_circle="0 0 " pressure="0.5 0.5 " style="fill:none; stroke:black;stroke-opacity:0.5; stroke-width:0.25; "/>
	<polyline points="346.15611330011654,650.0717803130351 448.4582874955575,809.5888968829574 " curvature_circle="0 0 " pressure="0.5 0.5 " style="fill:none; stroke:black;stroke-opacity:0.5; stroke-width:0.25; "/>
	<polyline points="668.0656620436182,708.9779096156515 715.1164077382667,358.34721169706427 " curvature_circle="0 0 " pressure="0.5 0.5 " style="fill:none; stroke:black;stroke-opacity:0.5; stroke-width:0.25; "/>
	<polyline points="431.2470703602751,424.95574065208933 448.4582874955575,809.5888968829574 " curvature_circle="0 0 " pressure="0.5 0.5 " style="fill:none; stroke:black;stroke-opacity:0.5; stroke-width:0.25; "/>
	<polyline points="715.1164077382667,358.34721169706427 431.2470703602751,424.95574065208933 " curvature_circle="0 0 " pressure="0.5 0.5 " style="fill:none; stroke:black;stroke-opacity:0.5; stroke-width:0.25; "/>
	<polyline points="536.9510429888941,584.0458513004878 545.0330584199894,282.78046868843603 " curvature_circle="0 0 " pressure="0.5 0.5 " style="fill:none; stroke:black;stroke-opacity:0.5; stroke-width:0.25; "/>
	<polyline points="545.0330584199894,282.78046868843603 715.1164077382667,358.34721169706427 " curvature_circle="0 0 " pressure="0.5 0.5 " style="fill:none; stroke:black;stroke-opacity:0.5; stroke-width:0.25; "/>
	<polyline points="307.6437102243125,321.79289232269764 346.15611330011654,650.0717803130351 " curvature_circle="0 0 " pressure="0.5 0.5 " style="fill:none; stroke:black;stroke-opacity:0.5; stroke-width:0.25; "/>
	<polyline points="545.0330584199894,282.78046868843603 307.6437102243125,321.79289232269764 " curvature_circle="0 0 " pressure="0.5 0.5 " style="fill:none; stroke:black;stroke-opacity:0.5; stroke-width:0.25; "/>
	<polyline points="307.6437102243125,321.79289232269764 431.2470703602751,424.95574065208933 " curvature_circle="0 0 " pressure="0.5 0.5 " style="fill:none; stroke:black;stroke-opacity:0.5; stroke-width:0.25; "/>
	<polyline points="493.057654954947,599.2354673305204 618.5330511670463,731.670794553942 " curvature_circle="0 0 " pressure="0.5 0.5 " style="fill:none; stroke:black;stroke-opacity:0.5; stroke-width:0.25; "/>
	<polyline points="509.10384216683076,781.8047246009157 397.87394944282255,632.1744589145529 " curvature_circle="0 0 " pressure="0.5 0.5 " style="fill:none; stroke:black;stroke-opacity:0.5; stroke-width:0.25; "/>
	<polyline points="653.1142739866684,372.89570418101107 491.48970982061826,291.5797506032834 " curvature_circle="0 0 " pressure="0.5 0.5 " style="fill:none; stroke:black;stroke-opacity:0.5; stroke-width:0.25; "/>
	<polyline points="373.19983612402893,311.0194377643549 512.0040825129105,406.0065091782882 " curvature_circle="0 0 " pressure="0.5 0.5 " style="fill:none; stroke:black;stroke-opacity:0.5; stroke-width:0.25; "/>
	<polyline points="322.45861057322054,448.07478137164946 438.133398943862,578.8501617803959 " curvature_circle="0 0 " pressure="0.5 0.5 " style="fill:none; stroke:black;stroke-opacity:0.5; stroke-width:0.25; "/>
	<polyline points="443.7658410543393,704.7229556224686 335.1546712107182,556.2957267053393 " curvature_circle="0 0 " pressure="0.5 0.5 " style="fill:none; stroke:black;stroke-opacity:0.5; stroke-width:0.25; "/>
	<polyline points="322.45861057322054,448.07478137164946 541.9729211081574,396.850213537903 " curvature_circle="0 0 " pressure="0.5 0.5 " style="fill:none; stroke:black;stroke-opacity:0.5; stroke-width:0.25; "/>
	<polyline points="335.1546712107182,556.2957267053393 539.302212705125,496.4035979312462 " curvature_circle="0 0 " pressure="0.5 0.5 " style="fill:none; stroke:black;stroke-opacity:0.5; stroke-width:0.25; "/>
	<polyline points="491.48970982061826,291.5797506032834 493.057654954947,599.2354673305204 " curvature_circle="0 0 " pressure="0.5 0.5 " style="fill:none; stroke:black;stroke-opacity:0.5; stroke-width:0.25; "/>
	<polyline points="397.87394944282255,632.1744589145529 373.19983612402893,311.0194377643549 " curvature_circle="0 0 " pressure="0.5 0.5 " style="fill:none; stroke:black;stroke-opacity:0.5; stroke-width:0.25; "/>
	<polyline points="696.7555387298416,495.17574054964916 438.133398943862,578.8501617803959 " curvature_circle="0 0 " pressure="0.5 0.5 " style="fill:none; stroke:black;stroke-opacity:0.5; stroke-width:0.25; "/>
	<polyline points="681.2825011664467,610.4836252531805 443.7658410543393,704.7229556224686 " curvature_circle="0 0 " pressure="0.5 0.5 " style="fill:none; stroke:black;stroke-opacity:0.5; stroke-width:0.25; "/>
	<polyline points="618.5330511670463,731.670794553942 653.1142739866684,372.89570418101107 " curvature_circle="0 0 " pressure="0.5 0.5 " style="fill:none; stroke:black;stroke-opacity:0.5; stroke-width:0.25; "/>
	<polyline points="512.0040825129105,406.0065091782882 509.1038421668308,781.8047246009157 " curvature_circle="0 0 " pressure="0.5 0.5 " style="fill:none; stroke:black;stroke-opacity:0.5; stroke-width:0.25; "/>
	<polyline points="696.7555387298416,495.17574054964916 541.9729211081574,396.850213537903 " curvature_circle="0 0 " pressure="0.5 0.5 " style="fill:none; stroke:black;stroke-opacity:0.5; stroke-width:0.25; "/>
	<polyline points="539.302212705125,496.4035979312462 681.2825011664467,610.4836252531805 " curvature_circle="0 0 " pressure="0.5 0.5 " style="fill:none; stroke:black;stroke-opacity:0.5; stroke-width:0.25; "/>
	<polyline points="492.0855428116688,408.49163858836476 639.5439379397197,513.68594075045 " curvature_circle="0 0 " pressure="0.5 0.5 " style="fill:none; stroke:black;stroke-opacity:0.5; stroke-width:0.25; "/>
	<polyline points="492.0855428116688,408.49163858836476 493.057654954947,599.2354673305204 " curvature_circle="0 0 " pressure="0.5 0.5 " style="fill:none; stroke:black;stroke-opacity:0.5; stroke-width:0.25; "/>
	<polyline points="382.65055416218746,434.028743598967 510.8517260619152,555.3229264883728 " curvature_circle="0 0 " pressure="0.5 0.5 " style="fill:none; stroke:black;stroke-opacity:0.5; stroke-width:0.25; "/>
	<polyline points="382.65055416218746,434.028743598967 397.87394944282255,632.1744589145529 " curvature_circle="0 0 " pressure="0.5 0.5 " style="fill:none; stroke:black;stroke-opacity:0.5; stroke-width:0.25; "/>
	<polyline points="492.60340256502434,510.10393999774357 628.1832122507996,631.5517954949398 " curvature_circle="0 0 " pressure="0.5 0.5 " style="fill:none; stroke:black;stroke-opacity:0.5; stroke-width:0.25; "/>
	<polyline points="492.60340256502434,510.10393999774357 493.057654954947,599.2354673305204 " curvature_circle="0 0 " pressure="0.5 0.5 " style="fill:none; stroke:black;stroke-opacity:0.5; stroke-width:0.25; "/>
	<polyline points="390.7902190874118,539.9735541557402 509.90123660453327,678.4824578510006 " curvature_circle="0 0 " pressure="0.5 0.5 " style="fill:none; stroke:black;stroke-opacity:0.5; stroke-width:0.25; "/>
	<polyline points="390.7902190874118,539.9735541557402 397.87394944282255,632.1744589145529 " curvature_circle="0 0 " pressure="0.5 0.5 " style="fill:none; stroke:black;stroke-opacity:0.5; stroke-width:0.25; "/>
	<polyline points="492.0855428116688,408.49163858836476 382.65055416218746,434.028743598967 " curvature_circle="0 0 " pressure="0.5 0.5 " style="fill:none; stroke:black;stroke-opacity:0.5; stroke-width:0.25; "/>
	<polyline points="492.60340256502434,510.10393999774357 492.0855428116688,408.49163858836476 " curvature_circle="0 0 " pressure="0.5 0.5 " style="fill:none; stroke:black;stroke-opacity:0.5; stroke-width:0.25; "/>
	<polyline points="390.7902190874118,539.9735541557402 382.65055416218746,434.028743598967 " curvature_circle="0 0 " pressure="0.5 0.5 " style="fill:none; stroke:black;stroke-opacity:0.5; stroke-width:0.25; "/>
	<polyline points="492.60340256502434,510.10393999774357 390.7902190874118,539.9735541557402 " curvature_circle="0 0 " pressure="0.5 0.5 " style="fill:none; stroke:black;stroke-opacity:0.5; stroke-width:0.25; "/>
	<polyline points="386.8666063064431,488.90430843586734 386.7251192266708,484.22291957648537 387.0127974027923,479.43794684124333 387.7307711462269,474.5890090098883 388.87613790069014,469.71692377925325 390.4419005210571,464.8632665489508 392.4169442619643,460.06995088334156 394.78608478113773,455.3787163090485 397.5301813217866,450.830635370032 400.6263220017075,446.465626533696 404.0480549371693,442.32196684204365 407.7656888428023,438.43584817219767 411.7466430642988,434.8408632607981 415.9558429956561,431.5677648137214 420.35614640856716,428.6439384511656 424.90880712321626,426.09326406122346 429.5739404146443,423.93580762638675 434.31100789420213,422.1876548459354 439.07929009917416,420.860870838744 443.83834580595095,419.9633521499966 448.54845341742964,419.4989656383905 453.1710174923042,419.4675740673124 457.668935518392,419.8651324266912 462.0069413351145,420.68394644034447 466.1518723680214,421.91280874679495 470.0729327213984,423.5373189685273 473.74186606266073,425.5401129094089 477.13312034217796,427.9011003441004 480.22394826836234,430.59785901115805 482.9944729685221,433.6059297687923 485.4277227960068,436.8990126941937 487.50961047703225,440.44932635175195 489.2289395818195,444.2278874432825 490.57730511757654,448.20480403678636 491.54905386830353,452.34942630208366 492.1411814072113,456.63066788843844 492.353234288923,461.0171724238624 492.18721760894994,465.4774932316987 491.64745594836626,469.98032057024415 490.7405115679375,474.4945908984556 489.4750701975646,478.98964784474384 487.8618094580798,483.4353333968615 485.91332534045796,487.80216918145913 483.64401870782683,492.06138985381943 481.0700055805945,496.1850930201463 478.2090298661291,500.1462755421342 475.0803842369161,503.9189875119253 471.704824762882,507.47834632383626 468.1045015950449,510.800690178964 464.3028826334425,513.863607123638 460.32468341898533,516.6460561754952 456.1957922101402,519.1284672967275 451.9431895289676,521.2928036386977 447.59486466197046,523.1227401439768 443.179725505398,524.603696673245 438.7274960651289,525.7230172080699 434.26860236370214,526.4700852896714 429.8340436336378,526.8364197550925 425.4552463411142,526.8158500710836 421.1639026749642,526.4046307599426 416.99178652267256,525.6015756905924 412.9705532646269,524.4081882157744 409.1315129606735,522.8287763132972 405.50538797362236,520.8705822361585 402.1220510192296,518.5438091996884 399.01024113275275,515.8617577122666 396.1972687432749,512.8408267749226 393.7087096804415,509.500535455786 391.56809316131825,505.8634725801984 389.7965838019434,501.9552572006309 388.41267221418457,497.80438523081386 387.4318717378246,493.4421268550145 386.8666063064431,488.90430843586734 " curvature_circle="0 0.019042108662092366 0.017930921726993166 0.016931994707027265 0.01605906165260813 0.015318305833401186 0.01471075950048586 0.01423489475207569 0.013888386172665005 0.013668183069209968 0.01357279012904386 0.013599222973949117 0.013751496607617944 0.014026237483837588 0.014429963558911529 0.014963082479276572 0.015627725498349235 0.016426496527484912 0.017352070762223993 0.018399933389042528 0.019550448478582734 0.02077302973335028 0.022029156962656928 0.023258755794411713 0.024396822604891344 0.025366514467364768 0.026092686525728527 0.02652138372607437 0.02661665030779529 0.026369218059333913 0.02580970617819478 0.02498780719331292 0.023973261107712727 0.022834356000537688 0.021641513534979732 0.020451084982874373 0.01930699461618911 0.018242160064033626 0.01727519828816723 0.016417732150774557 0.015676345119235508 0.015049580498235203 0.014537447679027033 0.014136055714718335 0.01384343075828603 0.013655228152930793 0.013571505824065197 0.013589391152128255 0.013710852450754612 0.013936339793661625 0.014267984978691762 0.014710302209500271 0.015263791013481636 0.015934228598241968 0.01672033710116624 0.017620386808899366 0.018628976943294878 0.019729678002400487 0.020899066186217063 0.022100529015770674 0.023284027320304563 0.024387259403024796 0.025337931060400987 0.026067054244785403 0.026507705745190978 0.026618849702801355 0.026385593616515626 0.02582653938163781 0.024987172969958615 0.023935348213604095 0.022745409745379152 0.021493123672172477 0 " pressure="0.5 0.5 0.5 0.5 0.5 0.5 0.5 0.5 0.5 0.5 0.5 0.5 0.5 0.5 0.5 0.5 0.5 0.5 0.5 0.5 0.5 0.5 0.5 0.5 0.5 0.5 0.5 0.5 0.5 0.5 0.5 0.5 0.5 0.5 0.5 0.5 0.5 0.5 0.5 0.5 0.5 0.5 0.5 0.5 0.5 0.5 0.5 0.5 0.5 0.5 0.5 0.5 0.5 0.5 0.5 0.5 0.5 0.5 0.5 0.5 0.5 0.5 0.5 0.5 0.5 0.5 0.5 0.5 0.5 0.5 0.5 0.5 0.5 " style="fill:none; stroke:black;stroke-opacity:0.5; stroke-width:0.25; "/>
	<polyline points="639.5439379397177,513.6859407504486 510.85172606191344,555.3229264883712 " curvature_circle="0 0 " pressure="0.5 0.5 " style="fill:none; stroke:black;stroke-opacity:0.5; stroke-width:0.25; "/>
	<polyline points="628.1832122507977,631.5517954949382 639.5439379397177,513.6859407504486 " curvature_circle="0 0 " pressure="0.5 0.5 " style="fill:none; stroke:black;stroke-opacity:0.5; stroke-width:0.25; "/>
	<polyline points="509.9012366045317,678.4824578509988 510.85172606191344,555.3229264883712 " curvature_circle="0 0 " pressure="0.5 0.5 " style="fill:none; stroke:black;stroke-opacity:0.5; stroke-width:0.25; "/>
	<polyline points="628.1832122507977,631.5517954949382 509.9012366045317,678.4824578509988 " curvature_circle="0 0 " pressure="0.5 0.5 " style="fill:none; stroke:black;stroke-opacity:0.5; stroke-width:0.25; "/>
	<polyline points="443.1812014546992,524.6032614763704 438.7289794824528,525.7227110923432 434.27008284160786,526.4699008925976 429.83551056040045,526.8363583815717 425.4566893964513,526.8159191789955 421.1653116957634,526.4048241668991 416.9931499893393,525.6019003146969 412.9718620438076,524.4086467574016 409.1327556926533,522.8293732906777 405.5065559727225,520.8712925031334 402.12313346551156,518.5446387917443 399.01122419900616,515.8627088321668 396.19814698875734,512.841888907358 393.7094829346276,509.50169325988566 391.5687447032682,505.8647242063552 389.7971103452397,501.95659067474145 388.4130654366486,497.8058083703606 387.4321298728185,493.4436213523624 386.86656576165194,488.9037973405816 386.725127078859,484.22238895284465 387.01285286438986,479.4374142690365 387.73087525445504,474.5884674609726 388.87628995295813,469.7163775792306 390.44209594969874,464.8627140172292 392.4171838260155,460.06941368925675 394.78636865892844,455.378184743523 397.53050636094645,450.83012780286373 400.62668287001895,446.4651419333455 404.04844950075886,442.3215087450077 407.76611532543114,438.43543703000586 411.7470990533871,434.84048299780585 415.95632082869395,431.5674214733743 420.35664360760313,428.64362282503487 424.90931894961193,426.0930104469902 429.57446322842634,423.93560048942146 434.3115355058259,422.18748913068083 439.0798186782472,420.86074247426916 443.83887089860605,419.9632620948867 448.54897144476524,419.49895277721475 453.17152304870484,419.4675898265508 457.6694268177752,419.86520364812253 462.0074117022591,420.68406236912665 466.1523207478988,421.9129595091389 470.0733546902707,423.5375293446116 473.74225670799814,425.54034841848755 477.13347946164805,427.9013765476476 480.224272477474,430.5981772780656 482.99476338653983,433.6062669075376 485.4279678232436,436.8993876016869 487.5098211696041,440.44972495445626 489.2291065099557,444.22833066196165 490.57743515316366,448.20524677039236 491.54914136000053,452.34989293292006 492.1412256749254,456.6311512020484 492.35323785097836,461.0176532938193 492.18717407300267,465.4779906298163 491.6473756595875,469.9808196759224 490.74038973628274,474.49509807360823 489.4749073299242,478.9901507642479 487.8616114295096,483.4358219718198 485.91309026915286,487.8026491763641 483.64374698325196,492.0618601585768 481.06970208723817,496.185535782775 478.20869621973173,500.1467095202356 475.0800244821897,503.9193901128524 471.70443828462976,507.4787283632587 468.10409160360615,510.80104478514187 464.3024485087658,513.8639325002987 460.324233315045,516.6463513682434 456.19532743752814,519.1287215041699 451.9427125154526,521.2930255123168 447.59437799972386,523.122918591344 443.1812014546992,524.6032614763704 " curvature_circle="0 0.017620563103338188 0.018628688929281816 0.01972900283409877 0.02089904207466969 0.022099744000782913 0.023283468568053765 0.024386576141237834 0.02533885577343663 0.026066292467540494 0.026507113650908205 0.026619207220806605 0.0263863861475529 0.025826118302868042 0.02498770099935267 0.023935304095560966 0.022746166795460123 0.021493344969119307 0.02024135284095103 0.019041943593860442 0.017930813049235658 0.01693185282808554 0.016058729569723325 0.015318522827553869 0.014710545368014666 0.014235055141135483 0.013888190485166948 0.013668185093545521 0.013573240472274588 0.01359879645760121 0.01375150614206659 0.01402594547475005 0.014431002675476737 0.014962613730568371 0.015627543467220065 0.01642638724094647 0.01735217023529757 0.018401743748086896 0.019548388749570402 0.020774465781852474 0.022028833948778886 0.023258438678257495 0.02439830135795981 0.02536502720957104 0.026093601795658984 0.02652160140639818 0.026615671226125178 0.02637050345638174 0.02580864251241856 0.024988681384415897 0.02397185324160121 0.022834997116162246 0.021641318474075997 0.02045079432203298 0.019307229688842943 0.018241576590706444 0.017275265414350892 0.016417735486466082 0.015676190793571083 0.015049525573161585 0.014537390600911537 0.014136237679278702 0.013842914710166077 0.013655659294658486 0.013571236229315959 0.013589496860185107 0.013710934077025326 0.013936184577628455 0.014268391964217128 0.014709975661694429 0.01526424688993124 0.015933818844038633 0 " pressure="1.0 1.0 1.0 1.0 1.0 1.0 1.0 1.0 1.0 1.0 1.0 1.0 1.0 1.0 1.0 1.0 1.0 1.0 1.0 1.0 1.0 1.0 1.0 1.0 1.0 1.0 1.0 1.0 1.0 1.0 1.0 1.0 1.0 1.0 1.0 1.0 1.0 1.0 1.0 1.0 1.0 1.0 1.0 1.0 1.0 1.0 1.0 1.0 1.0 1.0 1.0 1.0 1.0 1.0 1.0 1.0 1.0 1.0 1.0 1.0 1.0 1.0 1.0 1.0 1.0 1.0 1.0 1.0 1.0 1.0 1.0 1.0 1.0 " style="fill:none; stroke:black;stroke-opacity:1.0; stroke-width:5.0; "/>
</svg>
