<?xml version="1.0" ?>
<svg width="1000" height="1000" pen_width="0" xmlns="http://www.w3.org/2000/svg">
	<polyline points="668.0656620436182,708.9779096156515 448.4582874955575,809.5888968829574 " curvature_circle="0 0 " pressure="0.5 0.5 " style="fill:none; stroke:black;stroke-opacity:0.5; stroke-width:0.25; "/>
	<polyline points="536.9510429888941,584.0458513004878 668.0656620436182,708.9779096156515 " curvature_circle="0 0 " pressure="0.5 0.5 " style="fill:none; stroke:black;stroke-opacity:0.5; stroke-width:0.25; "/>
	<polyline points="536.9510429888941,584.0458513004878 346.15611330011654,650.0717803130351 " curvature_circle="0 0 " pressure="0.5 0.5 " style="fill:none; stroke:black;stroke-opacity:0.5; stroke-width:0.25; "/>
	<polyline points="346.15611330011654,650.0717803130351 448.4582874955575,809.5888968829574 " curvature_circle="0 0 " pressure="0.5 0.5 " style="fill:none; stroke:black;stroke-opacity:0.5; stroke-width:0.25; "/>
	<polyline points="668.0656620436182,708.9779096156515 715.1164077382667,358.34721169706427 " curvature_circle="0 0 " pressure="0.5 0.5 " style="fill:none; stroke:black;stroke-opacity:0.5; stroke-width:0.25; "/>
	<polyline points="431.2470703602751,424.95574065208933 448.4582874955575,809.5888968829574 " curvature_circle="0 0 " pressure="0.5 0.5 " style="fill:none; stroke:black;stroke-opacity:0.5; stroke-width:0.25; "/>
	<polyline points="715.1164077382667,358.34721169706427 431.2470703602751,424.95574065208933 " curvature_circle="0 0 " pressure="0.5 0.5 " style="fill:none; stroke:black;stroke-opacity:0.5; stroke-width:0.25; "/>
	<polyline points="536.9510429888941,584.0458513004878 545.0330584199894,282.78046868843603 " curvature_circle="0 0 " pressure="0.5 0.5 " style="fill:none; stroke:black;stroke-opacity:0.5; stroke-width:0.25; "/>
	<polyline points="545.0330584199894,282.78046868843603 715.1164077382667,358.34721169706427 " curvature_circle="0 0 " pressure="0.5 0.5 " style="fill:none; stroke:black;stroke-opacity:0.5; stroke-width:0.25; "/>
	<polyline points="307.6437102243125,321.79289232269764 346.15611330011654,650.0717803130351 " curvature_circle="0 0 " pressure="0.5 0.5 " style="fill:none; stroke:black;stroke-opacity:0.5; stroke-width:0.25; "/>
	<polyline points="545.0330584199894,282.78046868843603 307.6437102243125,321.79289232269764 " curvature_circle="0 0 " pressure="0.5 0.5 " style="fill:none; stroke:black;stroke-opacity:0.5; stroke-width:0.25; "/>
	<polyline points="307.6437102243125,321.79289232269764 431.2470703602751,424.95574065208933 " curvature_circle="0 0 " pressure="0.5 0.5 " style="fill:none; stroke:black;stroke-opacity:0.5; stroke-width:0.25; "/>
	<polyline points="493.057654954947,599.2354673305204 618.5330511670463,731.670794553942 " curvature_circle="0 0 " pressure="0.5 0.5 " style="fill:none; stroke:black;stroke-opacity:0.5; stroke-width:0.25; "/>
	<polyline points="509.10384216683076,781.8047246009157 397.87394944282255,632.1744589145529 " curvature_circle="0 0 " pressure="0.5 0.5 " style="fill:none; stroke:black;stroke-opacity:0.5; stroke-width:0.25; "/>
	<polyline points="653.1142739866684,372.89570418101107 491.48970982061826,291.5797506032834 " curvature_circle="0 0 " pressure="0.5 0.5 " style="fill:none; stroke:black;stroke-opacity:0.5; stroke-width:0.25; "/>
	<polyline points="373.19983612402893,311.0194377643549 512.0040825129105,406.0065091782882 " curvature_circle="0 0 " pressure="0.5 0.5 " style="fill:none; stroke:black;stroke-opacity:0.5; stroke-width:0.25; "/>
	<polyline points="322.45861057322054,448.07478137164946 438.133398943862,578.8501617803959 " curvature_circle="0 0 " pressure="0.5 0.5 " style="fill:none; stroke:black;stroke-opacity:0.5; stroke-width:0.25; "/>
	<polyline points="443.7658410543393,704.7229556224686 335.1546712107182,556.2957267053393 " curvature_circle="0 0 " pressure="0.5 0.5 " style="fill:none; stroke:black;stroke-opacity:0.5; stroke-width:0.25; "/>
	<polyline points="322.45861057322054,448.07478137164946 541.9729211081574,396.850213537903 " curvature_circle="0 0 " pressure="0.5 0.5 " style="fill:none; stroke:black;stroke-opacity:0.5; stroke-width:0.25; "/>
	<polyline points="335.1546712107182,556.2957267053393 539.302212705125,496.4035979312462 " curvature_circle="0 0 " pressure="0.5 0.5 " style="fill:none; stroke:black;stroke-opacity:0.5; stroke-width:0.25; "/>
	<polyline points="491.48970982061826,291.5797506032834 493.057654954947,599.2354673305204 " curvature_circle="0 0 " pressure="0.5 0.5 " style="fill:none; stroke:black;stroke-opacity:0.5; stroke-width:0.25; "/>
	<polyline points="397.87394944282255,632.1744589145529 373.19983612402893,311.0194377643549 " curvature_circle="0 0 " pressure="0.5 0.5 " style="fill:none; stroke:black;stroke-opacity:0.5; stroke-width:0.25; "/>
	<polyline points="696.7555387298416,495.17574054964916 438.133398943862,578.8501617803959 " curvature_circle="0 0 " pressure="0.5 0.5 " style="fill:none; stroke:black;stroke-opacity:0.5; stroke-width:0.25; "/>
	<polyline points="681.2825011664467,610.4836252531805 443.7658410543393,704.7229556224686 " curvature_circle="0 0 " pressure="0.5 0.5 " style="fill:none; stroke:black;stroke-opacity:0.5; stroke-width:0.25; "/>
	<polyline points="618.5330511670463,731.670794553942 653.1142739866684,372.89570418101107 " curvature_circle="0 0 " pressure="0.5 0.5 " style="fill:none; stroke:black;stroke-opacity:0.5; stroke-width:0.25; "/>
	<polyline points="512.0040825129105,406.0065091782882 509.1038421668308,781.8047246009157 " curvature_circle="0 0 " pressure="0.5 0.5 " style="fill:none; stroke:black;stroke-opacity:0.5; stroke-width:0.25; "/>
	<polyline points="696.7555387298416,495.17574054964916 541.9729211081574,396.850213537903 " curvature_circle="0 0 " pressure="0.5 0.5 " style="fill:none; stroke:black;stroke-opacity:0.5; stroke-width:0.25; "/>
	<polyline points="539.302212705125,496.4035979312462 681.2825011664467,610.4836252531805 " curvature_circle="0 0 " pressure="0.5 0.5 " style="fill:none; stroke:black;stroke-opacity:0.5; stroke-width:0.25; "/>
	<polyline points="492.0855428116688,408.49163858836476 639.5439379397197,513.68594075045 " curvature_circle="0 0 " pressure="0.5 0.5 " style="fill:none; stroke:black;stroke-opacity:0.5; stroke-width:0.25; "/>
	<polyline points="492.0855428116688,408.49163858836476 493.057654954947,599.2354673305204 " curvature_circle="0 0 " pressure="0.5 0.5 " style="fill:none; stroke:black;stroke-opacity:0.5; stroke-width:0.25; "/>
	<polyline points="382.65055416218746,434.028743598967 510.8517260619152,555.3229264883728 " curvature_circle="0 0 " pressure="0.5 0.5 " style="fill:none; stroke:black;stroke-opacity:0.5; stroke-width:0.25; "/>
	<polyline points="382.65055416218746,434.028743598967 397.87394944282255,632.1744589145529 " curvature_circle="0 0 " pressure="0.5 0.5 " style="fill:none; stroke:black;stroke-opacity:0.5; stroke-width:0.25; "/>
	<polyline points="492.60340256502434,510.10393999774357 628.1832122507996,631.5517954949398 " curvature_circle="0 0 " pressure="0.5 0.5 " style="fill:none; stroke:black;stroke-opacity:0.5; stroke-width:0.25; "/>
	<polyline points="492.60340256502434,510.10393999774357 493.057654954947,599.2354673305204 " curvature_circle="0 0 " pressure="0.5 0.5 " style="fill:none; stroke:black;stroke-opacity:0.5; stroke-width:0.25; "/>
	<polyline points="390.7902190874118,539.9735541557402 509.90123660453327,678.4824578510006 " curvature_circle="0 0 " pressure="0.5 0.5 " style="fill:none; stroke:black;stroke-opacity:0.5; stroke-width:0.25; "/>
	<polyline points="390.7902190874118,539.9735541557402 397.87394944282255,632.1744589145529 " curvature_circle="0 0 " pressure="0.5 0.5 " style="fill:none; stroke:black;stroke-opacity:0.5; stroke-width:0.25; "/>
	<polyline points="492.0855428116688,408.49163858836476 382.65055416218746,434.028743598967 " curvature_circle="0 0 " pressure="0.5 0.5 " style="fill:none; stroke:black;stroke-opacity:0.5; stroke-width:0.25; "/>
	<polyline points="492.60340256502434,510.10393999774357 492.0855428116688,408.49163858836476 " curvature_circle="0 0 " pressure="0.5 0.5 " style="fill:none; stroke:black;stroke-opacity:0.5; stroke-width:0.25; "/>
	<polyline points="390.7902190874118,539.9735541557402 382.65055416218746,434.028743598967 " curvature_circle="0 0 " pressure="0.5 0.5 " style="fill:none; stroke:black;stroke-opacity:0.5; stroke-width:0.25; "/>
	<polyline points="492.60340256502434,510.10393999774357 390.7902190874118,539.9735541557402 " curvature_circle="0 0 " pressure="0.5 0.5 " style="fill:none; stroke:black;stroke-opacity:0.5; stroke-width:0.25; "/>
	<polyline points="386.8666063064431,488.90430843586734 386.7251192266708,484.22291957648537 387.0127974027923,479.43794684124333 387.7307711462269,474.5890090098883 388.87613790069014,469.71692377925325 390.4419005210571,464.8632665489508 392.4169442619643,460.06995088334156 394.78608478113773,455.3787163090485 397.5301813217866,450.830635370032 400.6263220017075,446.465626533696 404.0480549371693,442.32196684204365 407.7656888428023,438.43584817219767 411.7466430642988,434.8408632607981 415.9558429956561,431.5677648137214 420.35614640856716,428.6439384511656 424.90880712321626,426.09326406122346 429.5739404146443,423.93580762638675 434.31100789420213,422.1876548459354 439.07929009917416,420.860870838744 443.83834580595095,419.9633521499966 448.54845341742964,419.4989656383905 453.1710174923042,419.4675740673124 457.668935518392,419.8651324266912 462.0069413351145,420.68394644034447 466.1518723680214,421.91280874679495 470.0729327213984,423.5373189685273 473.74186606266073,425.5401129094089 477.13312034217796,427.9011003441004 480.22394826836234,430.59785901115805 482.9944729685221,433.6059297687923 485.4277227960068,436.8990126941937 487.50961047703225,440.44932635175195 489.2289395818195,444.2278874432825 490.57730511757654,448.20480403678636 491.54905386830353,452.34942630208366 492.1411814072113,456.63066788843844 492.353234288923,461.0171724238624 492.18721760894994,465.4774932316987 491.64745594836626,469.98032057024415 490.7405115679375,474.4945908984556 489.4750701975646,478.98964784474384 487.8618094580798,483.4353333968615 485.91332534045796,487.80216918145913 483.64401870782683,492.06138985381943 481.0700055805945,496.1850930201463 478.2090298661291,500.1462755421342 475.0803842369161,503.9189875119253 471.704824762882,507.47834632383626 468.1045015950449,510.800690178964 464.3028826334425,513.863607123638 460.32468341898533,516.6460561754952 456.1957922101402,519.1284672967275 451.9431895289676,521.2928036386977 447.59486466197046,523.1227401439768 443.179725505398,524.603696673245 438.7274960651289,525.7230172080699 434.26860236370214,526.4700852896714 429.8340436336378,526.8364197550925 425.4552463411142,526.8158500710836 421.1639026749642,526.4046307599426 416.99178652267256,525.6015756905924 412.9705532646269,524.4081882157744 409.1315129606735,522.8287763132972 405.50538797362236,520.8705822361585 402.1220510192296,518.5438091996884 399.01024113275275,515.8617577122666 396.1972687432749,512.8408267749226 393.7087096804415,509.500535455786 391.56809316131825,505.8634725801984 389.7965838019434,501.9552572006309 388.41267221418457,497.80438523081386 387.4318717378246,493.4421268550145 386.8666063064431,488.90430843586734 " curvature_circle="0 0.019042108662092366 0.017930921726993166 0.016931994707027265 0.01605906165260813 0.015318305833401186 0.01471075950048586 0.01423489475207569 0.013888386172665005 0.013668183069209968 0.01357279012904386 0.013599222973949117 0.013751496607617944 0.014026237483837588 0.014429963558911529 0.014963082479276572 0.015627725498349235 0.016426496527484912 0.017352070762223993 0.018399933389042528 0.019550448478582734 0.02077302973335028 0.022029156962656928 0.023258755794411713 0.024396822604891344 0.025366514467364768 0.026092686525728527 0.02652138372607437 0.02661665030779529 0.026369218059333913 0.02580970617819478 0.02498780719331292 0.023973261107712727 0.022834356000537688 0.021641513534979732 0.020451084982874373 0.01930699461618911 0.018242160064033626 0.01727519828816723 0.016417732150774557 0.015676345119235508 0.015049580498235203 0.014537447679027033 0.014136055714718335 0.01384343075828603 0.013655228152930793 0.013571505824065197 0.013589391152128255 0.013710852450754612 0.013936339793661625 0.014267984978691762 0.014710302209500271 0.015263791013481636 0.015934228598241968 0.01672033710116624 0.017620386808899366 0.018628976943294878 0.019729678002400487 0.020899066186217063 0.022100529015770674 0.023284027320304563 0.024387259403024796 0.025337931060400987 0.026067054244785403 0.026507705745190978 0.026618849702801355 0.026385593616515626 0.02582653938163781 0.024987172969958615 0.023935348213604095 0.022745409745379152 0.021493123672172477 0 " pressure="0.5 0.5 0.5 0.5 0.5 0.5 0.5 0.5 0.5 0.5 0.5 0.5 0.5 0.5 0.5 0.5 0.5 0.5 0.5 0.5 0.5 0.5 0.5 0.5 0.5 0.5 0.5 0.5 0.5 0.5 0.5 0.5 0.5 0.5 0.5 0.5 0.5 0.5 0.5 0.5 0.5 0.5 0.5 0.5 0.5 0.5 0.5 0.5 0.5 0.5 0.5 0.5 0.5 0.5 0.5 0.5 0.5 0.5 0.5 0.5 0.5 0.5 0.5 0.5 0.5 0.5 0.5 0.5 0.5 0.5 0.5 0.5 0.5 " style="fill:none; stroke:black;stroke-opacity:0.5; stroke-width:0.25; "/>
	<polyline points="639.5439379397177,513.6859407504486 510.85172606191344,555.3229264883712 " curvature_circle="0 0 " pressure="0.5 0.5 " style="fill:none; stroke:black;stroke-opacity:0.5; stroke-width:0.25; "/>
	<polyline points="628.1832122507977,631.5517954949382 639.5439379397177,513.6859407504486 " curvature_circle="0 0 " pressure="0.5 0.5 " style="fill:none; stroke:black;stroke-opacity:0.5; stroke-width:0.25; "/>
	<polyline points="509.9012366045317,678.4824578509988 510.85172606191344,555.3229264883712 " curvature_circle="0 0 " pressure="0.5 0.5 " style="fill:none; stroke:black;stroke-opacity:0.5; stroke-width:0.25; "/>
	<polyline points="628.1832122507977,631.5517954949382 509.9012366045317,678.4824578509988 " curvature_circle="0 0 " pressure="0.5 0.5 " style="fill:none; stroke:black;stroke-opacity:0.5; stroke-width:0.25; "/>
	<polyline points="443.1812014546992,524.6032614763704 438.7289794824528,525.7227110923432 434.27008284160786,526.4699008925976 429.83551056040045,526.8363583815717 425.4566893964513,526.8159191789955 421.1653116957634,526.4048241668991 416.9931499893393,525.6019003146969 412.9718620438076,524.4086467574016 409.1327556926533,522.8293732906777 405.5065559727225,520.8712925031334 402.12313346551156,518.5446387917443 399.01122419900616,515.8627088321668 396.19814698875734,512.841888907358 393.7094829346276,509.50169325988566 391.5687447032682,505.8647242063552 389.7971103452397,501.95659067474145 388.4130654366486,497.8058083703606 387.4321298728185,493.4436213523624 386.86656576165194,488.9037973405816 386.725127078859,484.22238895284465 387.01285286438986,479.4374142690365 387.73087525445504,474.5884674609726 388.87628995295813,469.7163775792306 390.44209594969874,464.8627140172292 392.4171838260155,460.06941368925675 394.78636865892844,455.378184743523 397.53050636094645,450.83012780286373 400.62668287001895,446.4651419333455 404.04844950075886,442.3215087450077 407.76611532543114,438.43543703000586 411.7470990533871,434.84048299780585 415.95632082869395,431.5674214733743 420.35664360760313,428.64362282503487 424.90931894961193,426.0930104469902 429.57446322842634,423.93560048942146 434.3115355058259,422.18748913068083 439.0798186782472,420.86074247426916 443.83887089860605,419.9632620948867 448.54897144476524,419.49895277721475 453.17152304870484,419.4675898265508 457.6694268177752,419.86520364812253 462.0074117022591,420.68406236912665 466.1523207478988,421.9129595091389 470.0733546902707,423.5375293446116 473.74225670799814,425.54034841848755 477.13347946164805,427.9013765476476 480.224272477474,430.5981772780656 482.99476338653983,433.6062669075376 485.4279678232436,436.8993876016869 487.5098211696041,440.44972495445626 489.2291065099557,444.22833066196165 490.57743515316366,448.20524677039236 491.54914136000053,452.34989293292006 492.1412256749254,456.6311512020484 492.35323785097836,461.0176532938193 492.18717407300267,465.4779906298163 491.6473756595875,469.9808196759224 490.74038973628274,474.49509807360823 489.4749073299242,478.9901507642479 487.8616114295096,483.4358219718198 485.91309026915286,487.8026491763641 483.64374698325196,492.0618601585768 481.06970208723817,496.185535782775 478.20869621973173,500.1467095202356 475.0800244821897,503.9193901128524 471.70443828462976,507.4787283632587 468.10409160360615,510.80104478514187 464.3024485087658,513.8639325002987 460.324233315045,516.6463513682434 456.19532743752814,519.1287215041699 451.9427125154526,521.2930255123168 447.59437799972386,523.122918591344 443.1812014546992,524.6032614763704 " curvature_circle="0 0.017620563103338188 0.018628688929281816 0.01972900283409877 0.02089904207466969 0.022099744000782913 0.023283468568053765 0.024386576141237834 0.02533885577343663 0.026066292467540494 0.026507113650908205 0.026619207220806605 0.0263863861475529 0.025826118302868042 0.02498770099935267 0.023935304095560966 0.022746166795460123 0.021493344969119307 0.02024135284095103 0.019041943593860442 0.017930813049235658 0.01693185282808554 0.016058729569723325 0.015318522827553869 0.014710545368014666 0.014235055141135483 0.013888190485166948 0.013668185093545521 0.013573240472274588 0.01359879645760121 0.01375150614206659 0.01402594547475005 0.014431002675476737 0.014962613730568371 0.015627543467220065 0.01642638724094647 0.01735217023529757 0.018401743748086896 0.019548388749570402 0.020774465781852474 0.022028833948778886 0.023258438678257495 0.02439830135795981 0.02536502720957104 0.026093601795658984 0.02652160140639818 0.026615671226125178 0.02637050345638174 0.02580864251241856 0.024988681384415897 0.02397185324160121 0.022834997116162246 0.021641318474075997 0.02045079432203298 0.019307229688842943 0.018241576590706444 0.017275265414350892 0.016417735486466082 0.015676190793571083 0.015049525573161585 0.014537390600911537 0.014136237679278702 0.013842914710166077 0.013655659294658486 0.013571236229315959 0.013589496860185107 0.013710934077025326 0.013936184577628455 0.014268391964217128 0.014709975661694429 0.01526424688993124 0.015933818844038633 0 " pressure="0.5 0.5 0.5 0.5 0.5 0.5 0.5 0.5 0.5 0.5 0.5 0.5 0.5 0.5 0.5 0.5 0.5 0.5 0.5 0.5 0.5 0.5 0.5 0.5 0.5 0.5 0.5 0.5 0.5 0.5 0.5 0.5 0.5 0.5 0.5 0.5 0.5 0.5 0.5 0.5 0.5 0.5 0.5 0.5 0.5 0.5 0.5 0.5 0.5 0.5 0.5 0.5 0.5 0.5 0.5 0.5 0.5 0.5 0.5 0.5 0.5 0.5 0.5 0.5 0.5 0.5 0.5 0.5 0.5 0.5 0.5 0.5 0.5 " style="fill:none; stroke:black;stroke-opacity:0.5; stroke-width:0.25; "/>
	<polyline points="571.2033045061364,654.1596763392829 566.0521536911103,655.9976233800984 560.9233008308587,657.41317138572 555.8541799873001,658.391122413923 550.8804105684203,658.9195427475051 546.0379178425923,658.9890550749791 541.3627256395301,658.5930481378467 536.8907567746418,657.7278676176576 532.6575415680035,656.3930504294992 528.6979600884546,654.5915042653733 525.0459016541304,652.3296947966371 521.7339476493926,649.617865415159 518.7929779921433,646.4701007819675 516.2518040925892,642.9044950366149 514.136754072464,638.9432132397656 512.4712581125858,634.6124278447736 511.2754523809844,629.9423926723309 510.5658079470694,624.9672462264452 510.3547013231506,619.7248337651672 510.6501438510827,614.256500078763 511.45545627487553,608.6066831422421 512.7690503282638,602.822581758076 514.5842719977713,596.9536525955189 516.8892943027804,591.0509882506102 519.667160746192,585.1668697012578 522.895835219827,579.3539793595376 526.5484313987881,573.6648720193306 530.5934340939051,568.1511448086142 534.9951064679768,562.8628148833816 539.7139058519174,557.8476979412418 544.7070152918419,553.1507090155933 549.9288877570664,548.8133893899832 555.3318825657484,544.8731987103403 560.8668909081415,541.3632886125074 566.4839913265662,538.3120692394201 572.1330970527933,535.7428674293038 577.7645781660821,533.6739904098606 583.3298624950227,532.1183567924852 588.7819728490504,531.0837650755004 594.0760308546068,530.572821318264 599.1696741720256,530.5832307357736 604.0234264146293,531.1080411174866 608.6009928972787,532.135764119051 612.869483327378,533.6509687183482 616.7995633542976,535.6343779448969 620.3655549977733,538.0635571759631 623.545478150039,540.9130175655101 626.3210361474595,544.1547715223015 628.6775533986553,547.7587116383502 630.6038792790698,551.6929097691415 632.0922745646922,555.9240681117195 633.1382722112536,560.4177194599599 633.7404966040733,565.1386587981456 633.9004979253222,570.051117188614 633.6225891856589,575.1190614196922 632.9136720784421,580.306349566603 631.7830506338919,585.5769646836561 630.2422807514525,590.8951803999287 628.3050211071289,596.2256756896068 625.9868795112734,601.5336564217497 623.3053103557937,606.7849586341408 620.2794498363827,611.9461548976311 616.9300633207175,616.9846122678243 613.2794363561502,621.8685873952254 609.3512805219507,626.567271824112 605.1706754563659,631.0508634877717 600.7640051794916,635.290664108302 596.1588908821581,639.2591279636335 591.384146469696,642.929951298886 586.4697099006355,646.2781520137381 581.4465917872022,649.2802129439629 576.3468078251417,651.9141485858368 571.2033045061364,654.1596763392829 " curvature_circle="0 0.01360785990104193 0.015012730319209152 0.01666845204812073 0.018580209323273675 0.020727077336657258 0.023046564430497404 0.025414401394530096 0.027640577484574342 0.02947769571705502 0.030665371624227136 0.03100692905560379 0.030429070772346935 0.029018039070769133 0.026988189831867945 0.024606269168049553 0.02212773431818471 0.019741002799019046 0.01756747440225591 0.015662846060880226 0.014041481098934676 0.012692040503075737 0.011589408021054862 0.010708446204335947 0.010020709359524451 0.009506010140071469 0.009143775726438142 0.008922400615011754 0.008833914579062858 0.008874379782839165 0.009046458341814048 0.009353526161277721 0.009809787480311458 0.010430000619055111 0.011232920369672796 0.012248438701181183 0.013496596522788722 0.015009146933475038 0.016798527393256203 0.018865881980997437 0.021174146436406922 0.023624268123136057 0.02606585263953758 0.028258257744952105 0.029948235310821938 0.030879847857436735 0.030917729242235962 0.03006773646705706 0.028479086360337687 0.026394571797283467 0.02406751138378837 0.021717007227430522 0.019491988037675465 0.017478981344612298 0.015714958108317117 0.014204918411472289 0.01293416605920807 0.011880427306413933 0.011019655197603536 0.01032795244248148 0.00978612677743223 0.009376474979682603 0.009086276514503866 0.008906932337095734 0.008832392460206817 0.008859807673814503 0.00899073230973405 0.009229132671802883 0.009583274929006727 0.010063476294587315 0.01068607430528877 0.011468987023341839 0 " pressure="0.5 0.5 0.5 0.5 0.5 0.5 0.5 0.5 0.5 0.5 0.5 0.5 0.5 0.5 0.5 0.5 0.5 0.5 0.5 0.5 0.5 0.5 0.5 0.5 0.5 0.5 0.5 0.5 0.5 0.5 0.5 0.5 0.5 0.5 0.5 0.5 0.5 0.5 0.5 0.5 0.5 0.5 0.5 0.5 0.5 0.5 0.5 0.5 0.5 0.5 0.5 0.5 0.5 0.5 0.5 0.5 0.5 0.5 0.5 0.5 0.5 0.5 0.5 0.5 0.5 0.5 0.5 0.5 0.5 0.5 0.5 0.5 0.5 " style="fill:none; stroke:black;stroke-opacity:0.5; stroke-width:0.25; "/>
	<polyline points="397.8820178972193,514.6500131317171 457.34936781584014,579.4730718002047 519.5734314219675,647.3051902736947 " curvature_circle="0 0 0 " pressure="0.5 0.5 0.5 " style="fill:none; stroke:black;stroke-opacity:0.5; stroke-width:0.25; "/>
	<polyline points="476.3460819236361,427.35300669657386 561.7637288747704,492.99177059326416 620.6902999510384,538.3544745082302 " curvature_circle="0 0 0 " pressure="0.5 0.5 0.5 " style="fill:none; stroke:black;stroke-opacity:0.5; stroke-width:0.25; "/>
	<polyline points="418.36373281233887,762.6632413406646 630.1887186236081,672.8870103836307 " curvature_circle="0 0 " pressure="0.5 0.5 " style="fill:none; stroke:black;stroke-opacity:0.5; stroke-width:0.25; "/>
	<polyline points="367.6888666503604,683.6472419613888 565.1103907332589,610.8773770287335 " curvature_circle="0 0 " pressure="0.5 0.5 " style="fill:none; stroke:black;stroke-opacity:0.5; stroke-width:0.25; "/>
	<polyline points="565.6621913149974,755.8930658612376 446.76598369730493,615.2550261590222 " curvature_circle="0 0 " pressure="0.5 0.5 " style="fill:none; stroke:black;stroke-opacity:0.5; stroke-width:0.25; "/>
	<polyline points="664.2516255261095,335.74837447389064 393.2035272722298,393.2035272722299 " curvature_circle="0 0 " pressure="0.5 0.5 " style="fill:none; stroke:black;stroke-opacity:0.5; stroke-width:0.25; "/>
	<polyline points="580.1752364447877,298.39387203572085 332.35556616536235,342.41810383458574 " curvature_circle="0 0 " pressure="0.5 0.5 " style="fill:none; stroke:black;stroke-opacity:0.5; stroke-width:0.25; "/>
	<polyline points="585.6608282637276,388.7233199215939 434.3378086850026,300.9720598857042 " curvature_circle="0 0 " pressure="0.5 0.5 " style="fill:none; stroke:black;stroke-opacity:0.5; stroke-width:0.25; "/>
	<polyline points="418.36373281233887,762.6632413406646 393.2035272722298,393.2035272722299 " curvature_circle="0 0 " pressure="0.5 0.5 " style="fill:none; stroke:black;stroke-opacity:0.5; stroke-width:0.25; "/>
	<polyline points="332.35556616536235,342.41810383458574 367.6888666503604,683.6472419613888 " curvature_circle="0 0 " pressure="0.5 0.5 " style="fill:none; stroke:black;stroke-opacity:0.5; stroke-width:0.25; "/>
	<polyline points="434.3378086850026,300.9720598857042 446.76598369730493,615.2550261590222 " curvature_circle="0 0 " pressure="0.5 0.5 " style="fill:none; stroke:black;stroke-opacity:0.5; stroke-width:0.25; "/>
	<polyline points="585.6608282637276,388.7233199215939 565.6621913149974,755.8930658612376 " curvature_circle="0 0 " pressure="0.5 0.5 " style="fill:none; stroke:black;stroke-opacity:0.5; stroke-width:0.25; "/>
	<polyline points="664.2516255261095,335.74837447389064 630.1887186236081,672.8870103836307 " curvature_circle="0 0 " pressure="0.5 0.5 " style="fill:none; stroke:black;stroke-opacity:0.5; stroke-width:0.25; "/>
	<polyline points="565.1103907332589,610.8773770287335 580.1752364447877,298.39387203572085 " curvature_circle="0 0 " pressure="0.5 0.5 " style="fill:none; stroke:black;stroke-opacity:0.5; stroke-width:0.25; "/>
	<polyline points="577.7658210504808,533.6735882879356 585.6608282637276,388.7233199215939 " curvature_circle="0 0 " pressure="0.5 0.5 " style="fill:none; stroke:black;stroke-opacity:0.5; stroke-width:0.25; "/>
	<polyline points="571.2033045061364,654.1596763392829 565.6621913149974,755.8930658612376 " curvature_circle="0 0 " pressure="0.5 0.5 " style="fill:none; stroke:black;stroke-opacity:0.5; stroke-width:0.25; "/>
	<polyline points="443.1812014546992,524.6032614763704 446.76598369730493,615.2550261590222 " curvature_circle="0 0 " pressure="0.5 0.5 " style="fill:none; stroke:black;stroke-opacity:0.5; stroke-width:0.25; "/>
	<polyline points="439.0787611265186,420.86098925831766 434.3378086850026,300.9720598857042 " curvature_circle="0 0 " pressure="0.5 0.5 " style="fill:none; stroke:black;stroke-opacity:0.5; stroke-width:0.25; "/>
	<polyline points="472.06095501994315,645.175536261232 465.1339190744745,318.8305291285453 " curvature_circle="0 0 " pressure="0.5 0.5 " style="fill:none; stroke:black;stroke-opacity:0.5; stroke-width:0.25; "/>
	<polyline points="531.0205572940337,714.9167252494708 539.799960301779,362.1288932361887 " curvature_circle="0 0 " pressure="0.5 0.5 " style="fill:none; stroke:black;stroke-opacity:0.5; stroke-width:0.25; "/>
	<polyline points="664.2516255261095,335.74837447389064 539.799960301779,362.1288932361887 " curvature_circle="0 0 " pressure="0.5 0.5 " style="fill:none; stroke:black;stroke-opacity:0.5; stroke-width:0.25; "/>
	<polyline points="580.1752364447877,298.39387203572085 664.2516255261095,335.74837447389064 " curvature_circle="0 0 " pressure="0.5 0.5 " style="fill:none; stroke:black;stroke-opacity:0.5; stroke-width:0.25; "/>
	<polyline points="580.1752364447877,298.39387203572085 465.1339190744745,318.8305291285453 " curvature_circle="0 0 " pressure="0.5 0.5 " style="fill:none; stroke:black;stroke-opacity:0.5; stroke-width:0.25; "/>
	<polyline points="465.1339190744745,318.8305291285453 539.799960301779,362.1288932361887 " curvature_circle="0 0 " pressure="0.5 0.5 " style="fill:none; stroke:black;stroke-opacity:0.5; stroke-width:0.25; "/>
	<polyline points="664.2516255261095,335.74837447389064 671.7407393790386,261.62464699002595 " curvature_circle="0 0 " pressure="0.5 0.5 " style="fill:none; stroke:black;stroke-opacity:0.5; stroke-width:0.25; "/>
	<polyline points="541.7702553662235,282.95538638172275 539.799960301779,362.1288932361887 " curvature_circle="0 0 " pressure="0.5 0.5 " style="fill:none; stroke:black;stroke-opacity:0.5; stroke-width:0.25; "/>
	<polyline points="671.7407393790386,261.62464699002595 541.7702553662235,282.95538638172275 " curvature_circle="0 0 " pressure="0.5 0.5 " style="fill:none; stroke:black;stroke-opacity:0.5; stroke-width:0.25; "/>
	<polyline points="580.1752364447877,298.39387203572085 583.3909862065542,231.69098134708912 " curvature_circle="0 0 " pressure="0.5 0.5 " style="fill:none; stroke:black;stroke-opacity:0.5; stroke-width:0.25; "/>
	<polyline points="583.3909862065542,231.69098134708912 671.7407393790386,261.62464699002595 " curvature_circle="0 0 " pressure="0.5 0.5 " style="fill:none; stroke:black;stroke-opacity:0.5; stroke-width:0.25; "/>
	<polyline points="463.6310707587191,248.02866694889642 465.1339190744745,318.8305291285453 " curvature_circle="0 0 " pressure="0.5 0.5 " style="fill:none; stroke:black;stroke-opacity:0.5; stroke-width:0.25; "/>
	<polyline points="583.3909862065542,231.69098134708912 463.6310707587191,248.02866694889642 " curvature_circle="0 0 " pressure="0.5 0.5 " style="fill:none; stroke:black;stroke-opacity:0.5; stroke-width:0.25; "/>
	<polyline points="463.6310707587191,248.02866694889642 541.7702553662235,282.95538638172275 " curvature_circle="0 0 " pressure="0.5 0.5 " style="fill:none; stroke:black;stroke-opacity:0.5; stroke-width:0.25; "/>
	<polyline points="715.1164077382667,358.34721169706427 664.2516255261095,335.74837447389064 " curvature_circle="0 0 " pressure="0.5 0.5 " style="fill:none; stroke:black;stroke-opacity:0.5; stroke-width:0.25; "/>
	<polyline points="580.1752364447877,298.39387203572085 545.0330584199894,282.78046868843603 " curvature_circle="0 0 " pressure="0.5 0.5 " style="fill:none; stroke:black;stroke-opacity:0.5; stroke-width:0.25; "/>
	<polyline points="675.756704552187,651.6628647064329 668.0656620436182,708.9779096156515 " curvature_circle="0 0 " pressure="0.5 0.5 " style="fill:none; stroke:black;stroke-opacity:0.5; stroke-width:0.25; "/>
	<polyline points="608.2149259876434,736.3979434631431 668.0656620436182,708.9779096156515 " curvature_circle="0 0 " pressure="0.5 0.5 " style="fill:none; stroke:black;stroke-opacity:0.5; stroke-width:0.25; "/>
	<polyline points="613.3714296381346,678.0242814534456 608.2149259876434,736.3979434631431 " curvature_circle="0 0 " pressure="0.5 0.5 " style="fill:none; stroke:black;stroke-opacity:0.5; stroke-width:0.25; "/>
	<polyline points="613.3714296381346,678.0242814534456 675.756704552187,651.6628647064329 " curvature_circle="0 0 " pressure="0.5 0.5 " style="fill:none; stroke:black;stroke-opacity:0.5; stroke-width:0.25; "/>
	<polyline points="538.3272252258554,532.7472523684814 536.9510429888941,584.0458513004878 " curvature_circle="0 0 " pressure="0.5 0.5 " style="fill:none; stroke:black;stroke-opacity:0.5; stroke-width:0.25; "/>
	<polyline points="483.97841779249916,602.3774012873278 536.9510429888941,584.0458513004878 " curvature_circle="0 0 " pressure="0.5 0.5 " style="fill:none; stroke:black;stroke-opacity:0.5; stroke-width:0.25; "/>
	<polyline points="483.3618325298754,550.0745704212565 483.97841779249916,602.3774012873278 " curvature_circle="0 0 " pressure="0.5 0.5 " style="fill:none; stroke:black;stroke-opacity:0.5; stroke-width:0.25; "/>
	<polyline points="483.3618325298754,550.0745704212565 538.3272252258554,532.7472523684814 " curvature_circle="0 0 " pressure="0.5 0.5 " style="fill:none; stroke:black;stroke-opacity:0.5; stroke-width:0.25; "/>
	<polyline points="385.79211605943374,308.95003000408633 307.6437102243125,321.79289232269764 " curvature_circle="0 0 " pressure="0.5 0.5 " style="fill:none; stroke:black;stroke-opacity:0.5; stroke-width:0.25; "/>
	<polyline points="316.8182203538536,399.9962175541482 307.6437102243125,321.79289232269764 " curvature_circle="0 0 " pressure="0.5 0.5 " style="fill:none; stroke:black;stroke-opacity:0.5; stroke-width:0.25; "/>
	<polyline points="391.02323316216734,384.6395135638173 316.8182203538536,399.9962175541482 " curvature_circle="0 0 " pressure="0.5 0.5 " style="fill:none; stroke:black;stroke-opacity:0.5; stroke-width:0.25; "/>
	<polyline points="391.02323316216734,384.6395135638173 385.79211605943374,308.95003000408633 " curvature_circle="0 0 " pressure="0.5 0.5 " style="fill:none; stroke:black;stroke-opacity:0.5; stroke-width:0.25; "/>
	<polyline points="527.3038217597343,402.4165014161275 431.2470703602751,424.95574065208933 " curvature_circle="0 0 " pressure="0.5 0.5 " style="fill:none; stroke:black;stroke-opacity:0.5; stroke-width:0.25; "/>
	<polyline points="435.55270959450445,521.1773846669196 431.2470703602751,424.95574065208933 " curvature_circle="0 0 " pressure="0.5 0.5 " style="fill:none; stroke:black;stroke-opacity:0.5; stroke-width:0.25; "/>
	<polyline points="525.6818900396637,495.02696159929206 435.55270959450445,521.1773846669196 " curvature_circle="0 0 " pressure="0.5 0.5 " style="fill:none; stroke:black;stroke-opacity:0.5; stroke-width:0.25; "/>
	<polyline points="525.6818900396637,495.02696159929206 527.3038217597343,402.4165014161275 " curvature_circle="0 0 " pressure="0.5 0.5 " style="fill:none; stroke:black;stroke-opacity:0.5; stroke-width:0.25; "/>
	<polyline points="608.2149259876434,736.3979434631431 613.3529378721552,733.8619714570456 618.4611210825717,730.9788238814094 623.5101452110315,727.7680438104771 628.4714367993382,724.2504147611421 633.3172306871609,720.4478576722383 638.0206137225013,716.3833402894178 642.5555633428238,712.0807979585963 646.8969834499396,707.5650645485218 651.0207398884152,702.8618119785893 654.9036977003057,697.9974966169145 658.5237621709838,692.9993106317366 661.8599255027306,687.8951362233745 664.8923207540071,682.7135005322714 667.6022844611324,677.4835289106746 669.9724291125682,672.2348941623237 671.9867263705404,666.9977592989554 673.6306016263412,661.8027113389912 674.8910401303526,656.6806836886268 675.756704552187,651.6628647064329 " curvature_circle="0 0.009546303932511983 0.008872075308946898 0.008343172418946788 0.007939344910516576 0.007645225228331418 0.007449715182852754 0.007345482452810117 0.007328603115352481 0.0073983611654647825 0.007557206649405518 0.007810871629754748 0.008168641880995435 0.008643776689582302 0.009254052386116743 0.010022365828223854 0.010977252578463563 0.012153019523801864 0.013588917645702914 0 " pressure="0.5 0.5 0.5 0.5 0.5 0.5 0.5 0.5 0.5 0.5 0.5 0.5 0.5 0.5 0.5 0.5 0.5 0.5 0.5 0.5 " style="fill:none; stroke:black;stroke-opacity:0.5; stroke-width:0.25; "/>
	<polyline points="483.97841779249916,602.3774012873278 488.4798659480348,600.6473559509976 492.92640722643546,598.5944562642466 497.29181310239966,596.2331442728496 501.5506143563135,593.5792540859194 505.6781674373356,590.6499178158756 509.65071444394476,587.4634783897411 513.4454385366275,584.0394089066405 517.0405165362776,580.3982379513873 520.4151703702132,576.5614800372314 523.5497189088713,572.5515701413239 526.4256315926269,568.3918011133658 529.0255850814016,564.1062625806554 531.3335239705517,559.7197798412415 533.3347264051656,555.2578511316933 535.0158751911166,550.7465815784624 536.3651347446007,546.212612094143 537.3722339420933,541.6830414652067 538.0285546297367,537.1853398998927 538.3272252258554,532.7472523684814 " curvature_circle="0 0.013495971275952518 0.01283933614215531 0.01230724018291272 0.011891247312304344 0.011584104009713544 0.011380108118711095 0.011275302364143383 0.01126756571997943 0.011356646997336496 0.011544162137707429 0.011833557136911501 0.012230019426997245 0.012740299059097118 0.013372374618712357 0.014134865886607973 0.015036056761528511 0.01608235441046045 0.0172759913645547 0 " pressure="0.5 0.5 0.5 0.5 0.5 0.5 0.5 0.5 0.5 0.5 0.5 0.5 0.5 0.5 0.5 0.5 0.5 0.5 0.5 0.5 " style="fill:none; stroke:black;stroke-opacity:0.5; stroke-width:0.25; "/>
	<polyline points="316.8182203538536,399.9962175541482 316.35890275770726,393.76798442584607 316.4312123093481,387.42862365972536 317.0401936967744,381.02663147408924 318.1861741589686,374.6120049897552 319.86460566341987,368.23572394734805 322.0659767537117,361.9491922424392 324.77580005375535,355.80364968225655 327.97467940760305,349.84956591625473 331.63845834648845,344.1360296491383 335.73844910666287,338.710146927392 340.24173888856365,333.6164624416995 345.1115675751468,328.8964173804594 350.30776884082627,324.58785640986036 355.7872645997864,320.7245948834829 361.50460116368697,317.33605547059017 367.4125143795144,314.4469811351944 373.46251044430994,312.0772289149521 379.60544905799145,310.2416463678161 385.79211605943374,308.95003000408633 " curvature_circle="0 0.013507393156521875 0.01306247179971248 0.012655336601176119 0.01229376658232061 0.011983437258040068 0.011728318462349051 0.011531067844590893 0.0113933788236791 0.011316259079208546 0.011300227515736476 0.011345424556691578 0.011451633902785141 0.011618215107830888 0.011843947138329652 0.012126785166588343 0.01246353788993198 0.012849482248626705 0.013277947630163944 0 " pressure="0.5 0.5 0.5 0.5 0.5 0.5 0.5 0.5 0.5 0.5 0.5 0.5 0.5 0.5 0.5 0.5 0.5 0.5 0.5 0.5 " style="fill:none; stroke:black;stroke-opacity:0.5; stroke-width:0.25; "/>
	<polyline points="435.55270959450445,521.1773846669196 435.54390779981696,513.5971177068163 436.1904197903532,505.808597239799 437.49608598673854,497.8724327439989 439.45846579122497,489.85219259496006 442.0686088439896,481.81371037922037 445.3109341110728,473.82430930622274 449.16322716987963,465.95196014379337 453.59676243982267,458.2643915812342 458.57655292134916,450.8281747499492 464.06172546299354,443.70780559292797 470.00601492020917,436.9648097070868 476.35836607021497,430.65689408685535 483.0636280724225,424.8371688505066 490.0633228595044,419.5534595909811 497.296466310689,414.8477275969118 504.7004195355754,410.7556110408309 512.2117471500851,407.30609558309084 519.7670600460523,404.52131797199434 527.3038217597343,402.4165014161275 " curvature_circle="0 0.010906364758756601 0.010117233007201397 0.009433878866160048 0.008856011222317967 0.008379991468065456 0.008000691138899537 0.0077127669195922455 0.007511483948523973 0.0073932180104139275 0.007355742019678837 0.007398370169236152 0.007522001737974554 0.0077290773038820185 0.00802343165000937 0.008409997836633659 0.008894284502598881 0.009481515282106867 0.010175293603609768 0 " pressure="0.5 0.5 0.5 0.5 0.5 0.5 0.5 0.5 0.5 0.5 0.5 0.5 0.5 0.5 0.5 0.5 0.5 0.5 0.5 0.5 " style="fill:none; stroke:black;stroke-opacity:0.5; stroke-width:0.25; "/>
	<polyline points="608.2149259876434,736.3979434631431 483.97841779249916,602.3774012873278 " curvature_circle="0 0 " pressure="0.5 0.5 " style="fill:none; stroke:black;stroke-opacity:0.5; stroke-width:0.25; "/>
	<polyline points="675.756704552187,651.6628647064329 538.3272252258554,532.7472523684814 " curvature_circle="0 0 " pressure="0.5 0.5 " style="fill:none; stroke:black;stroke-opacity:0.5; stroke-width:0.25; "/>
	<polyline points="316.8182203538536,399.9962175541482 435.55270959450445,521.1773846669196 " curvature_circle="0 0 " pressure="0.5 0.5 " style="fill:none; stroke:black;stroke-opacity:0.5; stroke-width:0.25; "/>
	<polyline points="385.79211605943374,308.95003000408633 527.3038217597343,402.4165014161275 " curvature_circle="0 0 " pressure="0.5 0.5 " style="fill:none; stroke:black;stroke-opacity:0.5; stroke-width:0.25; "/>
	<polyline points="715.1164077382667,358.34721169706427 675.756704552187,651.6628647064329 " curvature_circle="0 0 " pressure="1.0 1.0 " style="fill:none; stroke:black;stroke-opacity:1.0; stroke-width:5.0; "/>
</svg>
