<?xml version="1.0" ?>
<svg width="1000" height="1000" pen_width="0" xmlns="http://www.w3.org/2000/svg">
	<polyline points="668.0656620436182,708.9779096156515 448.4582874955575,809.5888968829574 " curvature_circle="0 0 " pressure="0.5 0.5 " style="fill:none; stroke:black;stroke-opacity:0.5; stroke-width:0.25; "/>
	<polyline points="536.9510429888941,584.0458513004878 668.0656620436182,708.9779096156515 " curvature_circle="0 0 " pressure="0.5 0.5 " style="fill:none; stroke:black;stroke-opacity:0.5; stroke-width:0.25; "/>
	<polyline points="536.9510429888941,584.0458513004878 346.15611330011654,650.0717803130351 " curvature_circle="0 0 " pressure="0.5 0.5 " style="fill:none; stroke:black;stroke-opacity:0.5; stroke-width:0.25; "/>
	<polyline points="346.15611330011654,650.0717803130351 448.4582874955575,809.5888968829574 " curvature_circle="0 0 " pressure="0.5 0.5 " style="fill:none; stroke:black;stroke-opacity:0.5; stroke-width:0.25; "/>
	<polyline points="668.0656620436182,708.9779096156515 715.1164077382667,358.34721169706427 " curvature_circle="0 0 " pressure="0.5 0.5 " style="fill:none; stroke:black;stroke-opacity:0.5; stroke-width:0.25; "/>
	<polyline points="431.2470703602751,424.95574065208933 448.4582874955575,809.5888968829574 " curvature_circle="0 0 " pressure="0.5 0.5 " style="fill:none; stroke:black;stroke-opacity:0.5; stroke-width:0.25; "/>
	<polyline points="715.1164077382667,358.34721169706427 431.2470703602751,424.95574065208933 " curvature_circle="0 0 " pressure="0.5 0.5 " style="fill:none; stroke:black;stroke-opacity:0.5; stroke-width:0.25; "/>
	<polyline points="536.9510429888941,584.0458513004878 545.0330584199894,282.78046868843603 " curvature_circle="0 0 " pressure="0.5 0.5 " style="fill:none; stroke:black;stroke-opacity:0.5; stroke-width:0.25; "/>
	<polyline points="545.0330584199894,282.78046868843603 715.1164077382667,358.34721169706427 " curvature_circle="0 0 " pressure="0.5 0.5 " style="fill:none; stroke:black;stroke-opacity:0.5; stroke-width:0.25; "/>
	<polyline points="307.6437102243125,321.79289232269764 346.15611330011654,650.0717803130351 " curvature_circle="0 0 " pressure="0.5 0.5 " style="fill:none; stroke:black;stroke-opacity:0.5; stroke-width:0.25; "/>
	<polyline points="545.0330584199894,282.78046868843603 307.6437102243125,321.79289232269764 " curvature_circle="0 0 " pressure="0.5 0.5 " style="fill:none; stroke:black;stroke-opacity:0.5; stroke-width:0.25; "/>
	<polyline points="307.6437102243125,321.79289232269764 431.2470703602751,424.95574065208933 " curvature_circle="0 0 " pressure="0.5 0.5 " style="fill:none; stroke:black;stroke-opacity:0.5; stroke-width:0.25; "/>
	<polyline points="493.057654954947,599.2354673305204 618.5330511670463,731.670794553942 " curvature_circle="0 0 " pressure="0.5 0.5 " style="fill:none; stroke:black;stroke-opacity:0.5; stroke-width:0.25; "/>
	<polyline points="509.10384216683076,781.8047246009157 397.87394944282255,632.1744589145529 " curvature_circle="0 0 " pressure="0.5 0.5 " style="fill:none; stroke:black;stroke-opacity:0.5; stroke-width:0.25; "/>
	<polyline points="653.1142739866684,372.89570418101107 491.48970982061826,291.5797506032834 " curvature_circle="0 0 " pressure="0.5 0.5 " style="fill:none; stroke:black;stroke-opacity:0.5; stroke-width:0.25; "/>
	<polyline points="373.19983612402893,311.0194377643549 512.0040825129105,406.0065091782882 " curvature_circle="0 0 " pressure="0.5 0.5 " style="fill:none; stroke:black;stroke-opacity:0.5; stroke-width:0.25; "/>
	<polyline points="322.45861057322054,448.07478137164946 438.133398943862,578.8501617803959 " curvature_circle="0 0 " pressure="0.5 0.5 " style="fill:none; stroke:black;stroke-opacity:0.5; stroke-width:0.25; "/>
	<polyline points="443.7658410543393,704.7229556224686 335.1546712107182,556.2957267053393 " curvature_circle="0 0 " pressure="0.5 0.5 " style="fill:none; stroke:black;stroke-opacity:0.5; stroke-width:0.25; "/>
	<polyline points="322.45861057322054,448.07478137164946 541.9729211081574,396.850213537903 " curvature_circle="0 0 " pressure="0.5 0.5 " style="fill:none; stroke:black;stroke-opacity:0.5; stroke-width:0.25; "/>
	<polyline points="335.1546712107182,556.2957267053393 539.302212705125,496.4035979312462 " curvature_circle="0 0 " pressure="0.5 0.5 " style="fill:none; stroke:black;stroke-opacity:0.5; stroke-width:0.25; "/>
	<polyline points="491.48970982061826,291.5797506032834 493.057654954947,599.2354673305204 " curvature_circle="0 0 " pressure="0.5 0.5 " style="fill:none; stroke:black;stroke-opacity:0.5; stroke-width:0.25; "/>
	<polyline points="397.87394944282255,632.1744589145529 373.19983612402893,311.0194377643549 " curvature_circle="0 0 " pressure="0.5 0.5 " style="fill:none; stroke:black;stroke-opacity:0.5; stroke-width:0.25; "/>
	<polyline points="696.7555387298416,495.17574054964916 438.133398943862,578.8501617803959 " curvature_circle="0 0 " pressure="0.5 0.5 " style="fill:none; stroke:black;stroke-opacity:0.5; stroke-width:0.25; "/>
	<polyline points="681.2825011664467,610.4836252531805 443.7658410543393,704.7229556224686 " curvature_circle="0 0 " pressure="0.5 0.5 " style="fill:none; stroke:black;stroke-opacity:0.5; stroke-width:0.25; "/>
	<polyline points="618.5330511670463,731.670794553942 653.1142739866684,372.89570418101107 " curvature_circle="0 0 " pressure="0.5 0.5 " style="fill:none; stroke:black;stroke-opacity:0.5; stroke-width:0.25; "/>
	<polyline points="512.0040825129105,406.0065091782882 509.1038421668308,781.8047246009157 " curvature_circle="0 0 " pressure="0.5 0.5 " style="fill:none; stroke:black;stroke-opacity:0.5; stroke-width:0.25; "/>
	<polyline points="696.7555387298416,495.17574054964916 541.9729211081574,396.850213537903 " curvature_circle="0 0 " pressure="0.5 0.5 " style="fill:none; stroke:black;stroke-opacity:0.5; stroke-width:0.25; "/>
	<polyline points="539.302212705125,496.4035979312462 681.2825011664467,610.4836252531805 " curvature_circle="0 0 " pressure="0.5 0.5 " style="fill:none; stroke:black;stroke-opacity:0.5; stroke-width:0.25; "/>
	<polyline points="492.0855428116688,408.49163858836476 639.5439379397197,513.68594075045 " curvature_circle="0 0 " pressure="0.5 0.5 " style="fill:none; stroke:black;stroke-opacity:0.5; stroke-width:0.25; "/>
	<polyline points="492.0855428116688,408.49163858836476 493.057654954947,599.2354673305204 " curvature_circle="0 0 " pressure="0.5 0.5 " style="fill:none; stroke:black;stroke-opacity:0.5; stroke-width:0.25; "/>
	<polyline points="382.65055416218746,434.028743598967 510.8517260619152,555.3229264883728 " curvature_circle="0 0 " pressure="0.5 0.5 " style="fill:none; stroke:black;stroke-opacity:0.5; stroke-width:0.25; "/>
	<polyline points="382.65055416218746,434.028743598967 397.87394944282255,632.1744589145529 " curvature_circle="0 0 " pressure="0.5 0.5 " style="fill:none; stroke:black;stroke-opacity:0.5; stroke-width:0.25; "/>
	<polyline points="492.60340256502434,510.10393999774357 628.1832122507996,631.5517954949398 " curvature_circle="0 0 " pressure="0.5 0.5 " style="fill:none; stroke:black;stroke-opacity:0.5; stroke-width:0.25; "/>
	<polyline points="492.60340256502434,510.10393999774357 493.057654954947,599.2354673305204 " curvature_circle="0 0 " pressure="0.5 0.5 " style="fill:none; stroke:black;stroke-opacity:0.5; stroke-width:0.25; "/>
	<polyline points="390.7902190874118,539.9735541557402 509.90123660453327,678.4824578510006 " curvature_circle="0 0 " pressure="0.5 0.5 " style="fill:none; stroke:black;stroke-opacity:0.5; stroke-width:0.25; "/>
	<polyline points="390.7902190874118,539.9735541557402 397.87394944282255,632.1744589145529 " curvature_circle="0 0 " pressure="0.5 0.5 " style="fill:none; stroke:black;stroke-opacity:0.5; stroke-width:0.25; "/>
	<polyline points="492.0855428116688,408.49163858836476 382.65055416218746,434.028743598967 " curvature_circle="0 0 " pressure="0.5 0.5 " style="fill:none; stroke:black;stroke-opacity:0.5; stroke-width:0.25; "/>
	<polyline points="492.60340256502434,510.10393999774357 492.0855428116688,408.49163858836476 " curvature_circle="0 0 " pressure="0.5 0.5 " style="fill:none; stroke:black;stroke-opacity:0.5; stroke-width:0.25; "/>
	<polyline points="390.7902190874118,539.9735541557402 382.65055416218746,434.028743598967 " curvature_circle="0 0 " pressure="0.5 0.5 " style="fill:none; stroke:black;stroke-opacity:0.5; stroke-width:0.25; "/>
	<polyline points="492.60340256502434,510.10393999774357 390.7902190874118,539.9735541557402 " curvature_circle="0 0 " pressure="0.5 0.5 " style="fill:none; stroke:black;stroke-opacity:0.5; stroke-width:0.25; "/>
	<polyline points="386.8666063064431,488.90430843586734 386.7251192266708,484.22291957648537 387.0127974027923,479.43794684124333 387.7307711462269,474.5890090098883 388.87613790069014,469.71692377925325 390.4419005210571,464.8632665489508 392.4169442619643,460.06995088334156 394.78608478113773,455.3787163090485 397.5301813217866,450.830635370032 400.6263220017075,446.465626533696 404.0480549371693,442.32196684204365 407.7656888428023,438.43584817219767 411.7466430642988,434.8408632607981 415.9558429956561,431.5677648137214 420.35614640856716,428.6439384511656 424.90880712321626,426.09326406122346 429.5739404146443,423.93580762638675 434.31100789420213,422.1876548459354 439.07929009917416,420.860870838744 443.83834580595095,419.9633521499966 448.54845341742964,419.4989656383905 453.1710174923042,419.4675740673124 457.668935518392,419.8651324266912 462.0069413351145,420.68394644034447 466.1518723680214,421.91280874679495 470.0729327213984,423.5373189685273 473.74186606266073,425.5401129094089 477.13312034217796,427.9011003441004 480.22394826836234,430.59785901115805 482.9944729685221,433.6059297687923 485.4277227960068,436.8990126941937 487.50961047703225,440.44932635175195 489.2289395818195,444.2278874432825 490.57730511757654,448.20480403678636 491.54905386830353,452.34942630208366 492.1411814072113,456.63066788843844 492.353234288923,461.0171724238624 492.18721760894994,465.4774932316987 491.64745594836626,469.98032057024415 490.7405115679375,474.4945908984556 489.4750701975646,478.98964784474384 487.8618094580798,483.4353333968615 485.91332534045796,487.80216918145913 483.64401870782683,492.06138985381943 481.0700055805945,496.1850930201463 478.2090298661291,500.1462755421342 475.0803842369161,503.9189875119253 471.704824762882,507.47834632383626 468.1045015950449,510.800690178964 464.3028826334425,513.863607123638 460.32468341898533,516.6460561754952 456.1957922101402,519.1284672967275 451.9431895289676,521.2928036386977 447.59486466197046,523.1227401439768 443.179725505398,524.603696673245 438.7274960651289,525.7230172080699 434.26860236370214,526.4700852896714 429.8340436336378,526.8364197550925 425.4552463411142,526.8158500710836 421.1639026749642,526.4046307599426 416.99178652267256,525.6015756905924 412.9705532646269,524.4081882157744 409.1315129606735,522.8287763132972 405.50538797362236,520.8705822361585 402.1220510192296,518.5438091996884 399.01024113275275,515.8617577122666 396.1972687432749,512.8408267749226 393.7087096804415,509.500535455786 391.56809316131825,505.8634725801984 389.7965838019434,501.9552572006309 388.41267221418457,497.80438523081386 387.4318717378246,493.4421268550145 386.8666063064431,488.90430843586734 " curvature_circle="0 0.019042108662092366 0.017930921726993166 0.016931994707027265 0.01605906165260813 0.015318305833401186 0.01471075950048586 0.01423489475207569 0.013888386172665005 0.013668183069209968 0.01357279012904386 0.013599222973949117 0.013751496607617944 0.014026237483837588 0.014429963558911529 0.014963082479276572 0.015627725498349235 0.016426496527484912 0.017352070762223993 0.018399933389042528 0.019550448478582734 0.02077302973335028 0.022029156962656928 0.023258755794411713 0.024396822604891344 0.025366514467364768 0.026092686525728527 0.02652138372607437 0.02661665030779529 0.026369218059333913 0.02580970617819478 0.02498780719331292 0.023973261107712727 0.022834356000537688 0.021641513534979732 0.020451084982874373 0.01930699461618911 0.018242160064033626 0.01727519828816723 0.016417732150774557 0.015676345119235508 0.015049580498235203 0.014537447679027033 0.014136055714718335 0.01384343075828603 0.013655228152930793 0.013571505824065197 0.013589391152128255 0.013710852450754612 0.013936339793661625 0.014267984978691762 0.014710302209500271 0.015263791013481636 0.015934228598241968 0.01672033710116624 0.017620386808899366 0.018628976943294878 0.019729678002400487 0.020899066186217063 0.022100529015770674 0.023284027320304563 0.024387259403024796 0.025337931060400987 0.026067054244785403 0.026507705745190978 0.026618849702801355 0.026385593616515626 0.02582653938163781 0.024987172969958615 0.023935348213604095 0.022745409745379152 0.021493123672172477 0 " pressure="0.5 0.5 0.5 0.5 0.5 0.5 0.5 0.5 0.5 0.5 0.5 0.5 0.5 0.5 0.5 0.5 0.5 0.5 0.5 0.5 0.5 0.5 0.5 0.5 0.5 0.5 0.5 0.5 0.5 0.5 0.5 0.5 0.5 0.5 0.5 0.5 0.5 0.5 0.5 0.5 0.5 0.5 0.5 0.5 0.5 0.5 0.5 0.5 0.5 0.5 0.5 0.5 0.5 0.5 0.5 0.5 0.5 0.5 0.5 0.5 0.5 0.5 0.5 0.5 0.5 0.5 0.5 0.5 0.5 0.5 0.5 0.5 0.5 " style="fill:none; stroke:black;stroke-opacity:0.5; stroke-width:0.25; "/>
	<polyline points="639.5439379397177,513.6859407504486 510.85172606191344,555.3229264883712 " curvature_circle="0 0 " pressure="0.5 0.5 " style="fill:none; stroke:black;stroke-opacity:0.5; stroke-width:0.25; "/>
	<polyline points="628.1832122507977,631.5517954949382 639.5439379397177,513.6859407504486 " curvature_circle="0 0 " pressure="1.0 1.0 " style="fill:none; stroke:black;stroke-opacity:1.0; stroke-width:5.0; "/>
</svg>
