solid Mesh
  facet normal 0 0 -1
    outer loop
      vertex 0.005 -0.005 0
      vertex -0.005 -0.005 0
      vertex 0.005 0.005 0
    endloop
  endfacet
  facet normal 0 0 -1
    outer loop
      vertex -0.005 -0.005 0
      vertex -0.005 0.005 0
      vertex 0.005 0.005 0
    endloop
  endfacet
  facet normal 0 0 1
    outer loop
      vertex -0.005 -0.005 0.015
      vertex 0.005 -0.005 0.015
      vertex -0.005 0.005 0.015
    endloop
  endfacet
  facet normal 0 0 1
    outer loop
      vertex 0.005 -0.005 0.015
      vertex 0.005 0.005 0.015
      vertex -0.005 0.005 0.015
    endloop
  endfacet
  facet normal 1 0 0
    outer loop
      vertex 0.005 0.005 0.015
      vertex 0.005 -0.005 0.015
      vertex 0.005 0.005 0
    endloop
  endfacet
  facet normal 1 0 0
    outer loop
      vertex 0.005 -0.005 0.015
      vertex 0.005 -0.005 0
      vertex 0.005 0.005 0
    endloop
  endfacet
  facet normal 0 -1 0
    outer loop
      vertex 0.005 -0.005 0.015
      vertex -0.005 -0.005 0.015
      vertex 0.005 -0.005 0
    endloop
  endfacet
  facet normal 0 -1 0
    outer loop
      vertex -0.005 -0.005 0.015
      vertex -0.005 -0.005 0
      vertex 0.005 -0.005 0
    endloop
  endfacet
  facet normal 0 1 0
    outer loop
      vertex -0.005 0.005 0.015
      vertex 0.005 0.005 0.015
      vertex -0.005 0.005 0
    endloop
  endfacet
  facet normal 0 1 0
    outer loop
      vertex 0.005 0.005 0.015
      vertex 0.005 0.005 0
      vertex -0.005 0.005 0
    endloop
  endfacet
  facet normal -1 0 0
    outer loop
      vertex -0.005 -0.005 0.015
      vertex -0.005 0.005 0.015
      vertex -0.005 -0.005 0
    endloop
  endfacet
  facet normal -1 0 0
    outer loop
      vertex -0.005 0.005 0.015
      vertex -0.005 0.005 0
      vertex -0.005 -0.005 0
    endloop
  endfacet
endsolid Mesh
